<svg id="visual" viewBox="0 0 1920 1080" width="1920" height="1080" xmlns="http://www.w3.org/2000/svg" xmlns:xlink="http://www.w3.org/1999/xlink" version="1.1"><path d="M0 66L137 87L274 77L411 55L549 55L686 66L823 77L960 77L1097 77L1234 66L1371 55L1509 98L1646 55L1783 44L1920 77L1920 0L1783 0L1646 0L1509 0L1371 0L1234 0L1097 0L960 0L823 0L686 0L549 0L411 0L274 0L137 0L0 0Z" fill="#00cc8e"></path><path d="M0 174L137 206L274 163L411 163L549 131L686 174L823 195L960 163L1097 141L1234 131L1371 141L1509 163L1646 120L1783 185L1920 174L1920 75L1783 42L1646 53L1509 96L1371 53L1234 64L1097 75L960 75L823 75L686 64L549 53L411 53L274 75L137 85L0 64Z" fill="#00c38c"></path><path d="M0 239L137 293L274 228L411 249L549 206L686 260L823 249L960 195L1097 185L1234 174L1371 185L1509 228L1646 174L1783 271L1920 228L1920 172L1783 183L1646 118L1509 161L1371 139L1234 129L1097 139L960 161L823 193L686 172L549 129L411 161L274 161L137 204L0 172Z" fill="#00b98a"></path><path d="M0 325L137 401L274 336L411 465L549 357L686 444L823 379L960 293L1097 379L1234 336L1371 347L1509 422L1646 293L1783 390L1920 401L1920 226L1783 269L1646 172L1509 226L1371 183L1234 172L1097 183L960 193L823 247L686 258L549 204L411 247L274 226L137 291L0 237Z" fill="#00b087"></path><path d="M0 390L137 455L274 390L411 498L549 390L686 519L823 411L960 368L1097 455L1234 390L1371 422L1509 465L1646 347L1783 433L1920 455L1920 399L1783 388L1646 291L1509 420L1371 345L1234 334L1097 377L960 291L823 377L686 442L549 355L411 463L274 334L137 399L0 323Z" fill="#00a784"></path><path d="M0 476L137 541L274 465L411 573L549 455L686 606L823 476L960 476L1097 541L1234 465L1371 476L1509 530L1646 411L1783 498L1920 541L1920 453L1783 431L1646 345L1509 463L1371 420L1234 388L1097 453L960 366L823 409L686 517L549 388L411 496L274 388L137 453L0 388Z" fill="#009e80"></path><path d="M0 671L137 811L274 822L411 833L549 725L686 865L823 725L960 681L1097 789L1234 800L1371 746L1509 854L1646 660L1783 843L1920 703L1920 539L1783 496L1646 409L1509 528L1371 474L1234 463L1097 539L960 474L823 474L686 604L549 453L411 571L274 463L137 539L0 474Z" fill="#00957c"></path><path d="M0 746L137 919L274 908L411 887L549 811L686 941L823 822L960 768L1097 876L1234 897L1371 865L1509 930L1646 789L1783 941L1920 833L1920 701L1783 841L1646 658L1509 852L1371 744L1234 798L1097 787L960 679L823 723L686 863L549 723L411 831L274 820L137 809L0 669Z" fill="#008c78"></path><path d="M0 1081L137 1081L274 1081L411 1081L549 1081L686 1081L823 1081L960 1081L1097 1081L1234 1081L1371 1081L1509 1081L1646 1081L1783 1081L1920 1081L1920 831L1783 939L1646 787L1509 928L1371 863L1234 895L1097 874L960 766L823 820L686 939L549 809L411 885L274 906L137 917L0 744Z" fill="#038373"></path></svg>